<?xml version="1.0" encoding="UTF-8"?>
<svg id="Layer_1" data-name="Layer 1" xmlns="http://www.w3.org/2000/svg" viewBox="0 0 271.2 155.61">
  <defs>
    <style>
      .cls-1 {
        fill: #2ea983;
      }

      .cls-2 {
        fill: #77c2aa;
      }
    </style>
  </defs>
  <path class="cls-1" d="M126.84,95.64c2.43-3.08,5.56-3.56,9.11-3.08,3.07,.42,4.65,2.13,4.59,5.09-.25,12.45,.73,24.92-.65,37.35-1.01,9.1-6.3,15.26-14.4,18.54-8.97,3.63-17.89,2.46-25.89-3.19-3.02-2.13-4.51-5.28-1.89-8.66,2.5-3.23,5.77-2.99,8.89-.75,3.12,2.24,6.55,3.18,10.33,2.96,5.6-.33,9.04-3.97,9.47-10.44-4.95,2.84-10.05,3.82-15.45,2.82-5.63-1.04-10.03-3.9-13.13-8.74-5.47-8.54-4.6-21.29,1.97-28.63,6.55-7.33,16.37-8.62,27.05-3.27Zm-.03,18.88c-.03-6.46-3.71-10.3-9.85-10.27-6.8,.03-10.73,3.93-10.68,10.59,.05,6.33,4.05,10.13,10.69,10.15,5.82,.02,9.87-4.28,9.84-10.47Z"/>
  <path class="cls-1" d="M76.78,41.66h-24.07c0,5.84,.02,11.53,0,17.21-.02,5.5-.91,6.35-6.47,6.33-6.02-.02-7.09-.9-7.09-6.26-.01-15.83,0-31.67,.07-47.5,.02-5.09,1.22-5.83,7.38-6.02,4.49-.14,6.4,1.55,6.19,6.18-.26,5.73-.06,11.48-.06,17.63h24.09c0-5.94,.13-11.81-.04-17.66-.13-4.6,1.95-6.3,6.38-6.14,5.52,.19,6.98,1.23,6.99,6.01,.02,16.15-.12,32.31,.03,48.46,.04,4.59-2.6,5.2-6.07,5.29-3.7,.1-7.31,.08-7.3-5.14,.01-6.03,0-12.05,0-18.39Z"/>
  <path class="cls-1" d="M13.09,88.23q-1.79,12.32,9.36,12.32c3.51,0,7.02,.13,10.53,0,3.79-.15,5.04,1.78,5.09,5.28,.05,3.7-.87,6.36-5.18,6.37-3.35,0-6.7,0-10.05,.01-3.16,0-6.32,0-9.35,0-.39,.86-.71,1.27-.75,1.71q-1,11.06,9.96,11.03c4.15,0,8.3,.03,12.44-.04,3.87-.07,4.88,2.27,4.93,5.57,.05,3.36-.57,6.22-4.77,6.23-10.21,.03-20.42,.02-30.63-.02-3.05-.01-4.65-1.44-4.64-4.72C.07,115.17,.07,98.38,0,81.59c-.01-3.5,1.58-4.89,4.94-4.88,10.05,.05,20.1,.09,30.15,0,4.25-.04,4.96,2.56,4.98,5.96,.02,3.31-.92,5.61-4.83,5.57-7.31-.07-14.62-.02-22.15-.02Z"/>
  <path class="cls-1" d="M242.15,95.78c5.63-2.53,10.82-4.38,16.61-2.94,6.69,1.67,11.85,6.89,12.18,13.7,.42,8.62,.2,17.27,.22,25.91,.01,3.81-2.61,4.26-5.56,4.28-3.14,.02-6.43,.17-6.51-4.28-.12-6.24-.03-12.48-.1-18.72-.07-6.04-2.29-8.78-7.33-9.28-5.52-.55-9.15,2.07-9.72,8.1-.59,6.19-.46,12.46-.34,18.69,.09,4.68-2.4,5.56-6.36,5.56-3.97,0-7.03-.47-7.02-5.48,.04-17.28-.04-34.56,.03-51.84,.02-4.61,1.65-5.6,7.37-5.67,4.2-.05,6.12,1.53,6.02,5.95-.11,5.2-.52,10.46,.51,16.03Z"/>
  <path class="cls-1" d="M108.16,48.22c2.55,6.87,10.14,9.12,16.68,5.77,.85-.43,1.56-1.14,2.43-1.52,2.86-1.29,5.67-1.42,7.75,1.35,2.2,2.95,.29,5.21-1.83,7-7.49,6.36-16.18,6.69-24.77,3.48-9.27-3.46-13.11-11.2-13.11-20.85,0-9.32,3.95-16.54,12.65-20.2,9.08-3.82,22.15-2,27.99,9.53,1.27,2.5,2.99,4.65,3,7.74,.03,6.41-.94,7.64-7.31,7.68-7.63,.05-15.27,.01-23.48,.01Zm-.46-9.38h18.38c-1.19-4.78-4.34-6.82-8.37-6.84-4.36-.02-8.51,1.18-10.02,6.84Z"/>
  <path class="cls-1" d="M208.42,21.94c12.92,.11,22.45,9.4,22.3,21.75-.16,13.32-9.5,22.43-22.77,22.41-12.84-.03-22.54-9.3-22.71-22.75-.12-10.03,7.74-22.2,23.17-21.4Zm.01,11.51c-6.41-.05-11.06,4.45-11,10.63,.06,5.9,4.38,10.29,10.21,10.39,6.81,.11,10.93-3.8,10.95-10.4,.02-6.69-3.69-10.57-10.16-10.62Z"/>
  <path class="cls-1" d="M59.24,95.86c4.98-1.93,9.66-4.1,14.92-3.29,8.53,1.31,13.71,7.17,14.01,16.16,.26,7.66,.03,15.34,.21,23,.09,3.79-1.69,5.16-5.2,5.12-3.53-.04-6.98-.1-7.02-4.97-.05-5.91,.04-11.82-.08-17.73-.15-6.8-2.32-9.53-7.34-9.58-5.93-.06-9.05,2.93-9.37,9.6-.28,5.74-.21,11.5-.11,17.25,.09,4.73-2.72,5.44-6.54,5.4-3.82-.04-5.91-1.22-5.83-5.57,.18-10.06-.07-20.13,.06-30.19,.03-2.65-1.47-6.33,2.23-7.54,3.61-1.18,7.56-1.57,10.07,2.35Z"/>
  <path class="cls-1" d="M204.91,92.07c5.65,.22,10.01,1,13.76,3.78,3.1,2.29,3.63,5.31,1.56,8.4-1.99,2.97-4.66,2.79-7.43,.73-2.97-2.2-6.4-2.74-10-2.29-1.35,.17-2.55,.75-2.84,2.18-.35,1.76,.93,2.8,2.28,3.19,3.21,.92,6.51,1.5,9.77,2.28,7.66,1.83,11.88,6.88,11.49,13.71-.42,7.33-4.92,11.93-12.75,13.19-6.47,1.05-12.76,.59-18.62-2.5-4.21-2.22-5.43-5.76-3.49-9.03,1.89-3.18,5.02-3.9,8.05-1.36,3.51,2.93,7.33,3.56,11.63,2.83,1.69-.29,3.28-.78,3.5-2.65,.23-1.98-1.28-2.62-2.97-3.06-3.7-.94-7.39-1.9-11.03-3.05-6.38-2-9.37-5.8-9.44-11.69-.08-6.32,3.58-11.45,9.65-13.35,2.59-.81,5.23-1.51,6.87-1.3Z"/>
  <path class="cls-1" d="M146.69,102.57c0-7.36-.02-14.71,0-22.07,.02-5.33,1.53-7.09,6.04-7.14,4.73-.04,6.35,1.78,6.36,7.34,.03,13.27,.05,26.55,.04,39.82,0,2.63,.01,4.7,3.49,5.69,3.82,1.08,1.76,4.89,1.92,7.5,.15,2.49-1.82,2.94-3.94,3.09-9.41,.7-13.68-3.06-13.88-12.64-.15-7.19-.03-14.39-.03-21.59h-.02Z"/>
  <path class="cls-1" d="M166.06,31.01c0-7.51,.11-15.03-.04-22.54-.09-4.39,2.08-6.02,6.12-6.07,3.86-.06,6.35,.84,6.29,5.6-.16,13.58-.03,27.16,.1,40.75,.02,2.45,.06,4.65,3.06,6.3,2.78,1.54,1.28,5.28,1.01,7.99-.26,2.59-2.73,2.14-4.6,2.18-7.56,.16-11.86-3.95-11.97-11.67-.11-7.51-.02-15.03-.02-22.54,.02,0,.05,0,.07,0Z"/>
  <path class="cls-1" d="M160.1,63.38c-5.28,4.39-13.38,1.7-15.43-5.27-.66-2.26-.85-4.73-.87-7.1-.09-14.07,.05-28.14-.14-42.21-.06-4.54,1.58-6.44,6.15-6.25,5.06,.21,5.97,.98,5.98,6.35,.03,13.27,.16,26.54-.02,39.81-.05,3.51,.98,5.73,4.25,6.88,.03,2.6,.05,5.19,.08,7.79Z"/>
  <path class="cls-1" d="M230.59,15.56c-5.57,.09-3.36,5.14-5.29,8.49-8.55-6.26-17.99-7.8-27.78-4.15-1.19-1.33-.88-2.52-.42-3.47,2.31-4.86,.31-7.54-4.18-9.51-1.9-.83-4.09-1.73-5.23-3.7,.96-1.95,2.6-1.4,3.91-1.53,5.85-.56,11.73-.88,17.58-1.54,4.44-.5,8.33,.35,12.25,2.62,6.52,3.78,13.32,7.07,20.38,10.77-2.71,2.48-5.46,1.22-7.79,1.93-1.14,.03-2.28,.06-3.42,.1Z"/>
  <path class="cls-1" d="M181.2,115.07c0,5.6-.14,11.2,.05,16.8,.13,3.99-2.06,4.97-5.38,4.93-3.32-.04-6.51-.02-6.49-4.84,.05-11.35-.08-22.71-.14-34.06-.03-5.03,3.5-4.81,6.98-4.89,3.71-.09,5.11,1.61,4.99,5.26-.18,5.59-.05,11.2-.05,16.8h.04Z"/>
  <path class="cls-1" d="M182.85,80.55c-.02,4.54-3.34,7.81-7.85,7.71-4.33-.09-7.34-3.26-7.28-7.67,.05-4.22,3.32-7.49,7.54-7.53,4.21-.04,7.6,3.31,7.59,7.49Z"/>
  <path class="cls-2" d="M230.59,15.56c1.14-.03,2.28-.06,3.42-.1-1.15,5.12,.09,10.1,1.1,15.1-1.56,1.11-3.02,.72-4.7,.24-1.02-5.1,3.5-10.18,.18-15.24Z"/>
  <path class="cls-2" d="M160.1,63.38c-.03-2.6-.05-5.19-.08-7.79,3.11,2.56,2.93,5.16,.08,7.79Z"/>
</svg>